<svg xmlns="http://www.w3.org/2000/svg" xmlns:xlink="http://www.w3.org/1999/xlink" width="500" zoomAndPan="magnify" viewBox="0 0 375 374.999991" height="500" preserveAspectRatio="xMidYMid meet" version="1.0"><defs><g/><clipPath id="032e39def9"><path d="M 74.347656 171 L 300.191406 171 L 300.191406 265 L 74.347656 265 Z M 74.347656 171 " clip-rule="nonzero"/></clipPath><clipPath id="53a67f6da9"><path d="M 80 21.496094 L 184 21.496094 L 184 170 L 80 170 Z M 80 21.496094 " clip-rule="nonzero"/></clipPath><clipPath id="b48b63de60"><path d="M 191 21.496094 L 295 21.496094 L 295 170 L 191 170 Z M 191 21.496094 " clip-rule="nonzero"/></clipPath></defs><rect x="-37.5" width="450" fill="#ffffff" y="-37.499999" height="449.999989" fill-opacity="1"/><rect x="-37.5" width="450" fill="#390303" y="-37.499999" height="449.999989" fill-opacity="1"/><g clip-path="url(#032e39def9)"><path fill="#ffffff" d="M 284.296875 192.179688 C 276 181.511719 265.925781 173.707031 252.195312 171.832031 C 233.625 169.261719 217.917969 174.894531 207.152344 190.5 C 202.015625 198.007812 196.386719 201.660156 187.59375 201.660156 C 178.804688 201.660156 173.175781 198.007812 168.039062 190.5 C 157.269531 174.894531 141.566406 169.363281 122.996094 171.832031 C 109.367188 173.707031 99.191406 181.511719 90.894531 192.179688 C 86.054688 198.402344 81.015625 204.527344 74.398438 208.972656 L 74.398438 222.800781 C 80.820312 223.789062 83.191406 229.023438 86.054688 233.863281 C 88.425781 237.8125 90.105469 242.0625 92.96875 245.816406 C 113.515625 272.582031 152.925781 270.210938 171.199219 241.171875 C 175.347656 234.554688 177.621094 227.246094 179.695312 219.835938 C 180.78125 215.984375 182.953125 213.019531 187.496094 213.019531 C 192.039062 213.019531 194.214844 215.984375 195.300781 219.835938 C 197.375 227.246094 199.644531 234.554688 203.792969 241.171875 C 222.066406 270.210938 261.480469 272.582031 282.023438 245.816406 C 284.890625 242.160156 286.570312 237.8125 288.941406 233.863281 C 291.804688 229.121094 294.273438 223.886719 300.59375 222.800781 L 300.59375 208.972656 C 293.976562 204.527344 288.941406 198.402344 284.097656 192.179688 Z M 130.304688 260.53125 C 106.699219 260.433594 87.238281 240.875 87.238281 217.367188 C 87.238281 193.660156 106.894531 174.101562 130.699219 174.203125 C 154.605469 174.203125 173.964844 193.757812 173.867188 217.566406 C 173.765625 241.46875 154.308594 260.632812 130.304688 260.53125 Z M 244.984375 260.925781 C 220.785156 261.027344 201.226562 241.765625 201.128906 217.664062 C 201.027344 193.660156 220.585938 174.003906 244.589844 174.003906 C 268.492188 174.003906 288.347656 193.660156 288.347656 217.464844 C 288.347656 241.171875 268.691406 260.828125 244.984375 260.925781 Z M 244.984375 260.925781 " fill-opacity="1" fill-rule="nonzero"/></g><g clip-path="url(#53a67f6da9)"><path fill="#ffffff" d="M 183.445312 30.382812 L 183.445312 169.953125 C 178.113281 169.953125 170.605469 167.683594 166.554688 164.027344 C 166.359375 163.832031 166.0625 163.632812 165.863281 163.4375 C 165.171875 163.730469 164.382812 164.027344 163.59375 164.226562 C 156.578125 166.003906 147.492188 163.335938 141.863281 159.285156 C 135.738281 164.820312 124.28125 164.027344 118.550781 158.398438 C 118.058594 157.902344 117.664062 157.410156 117.265625 156.917969 C 117.265625 156.917969 117.167969 156.816406 117.070312 156.71875 C 116.773438 156.324219 110.648438 157.210938 109.761719 157.210938 C 107.289062 157.210938 104.722656 156.71875 102.648438 155.335938 C 98.007812 152.273438 95.832031 145.65625 96.128906 140.222656 C 96.128906 139.925781 96.128906 139.628906 96.128906 139.335938 C 95.636719 139.136719 95.140625 139.039062 94.648438 138.839844 C 88.820312 136.570312 83.78125 131.925781 81.808594 126.097656 C 79.632812 119.679688 80.71875 112.367188 84.574219 106.9375 C 80.523438 101.40625 81.214844 91.625 83.585938 85.207031 C 85.757812 79.378906 90.597656 74.636719 96.425781 72.660156 C 97.117188 72.464844 97.710938 72.265625 98.402344 72.066406 C 98.402344 72.066406 98.402344 71.871094 98.402344 71.871094 C 97.710938 64.957031 100.574219 57.941406 105.613281 53.101562 C 110.453125 48.460938 117.265625 46.1875 123.886719 46.878906 C 124.28125 46.878906 124.578125 46.878906 124.972656 46.980469 C 124.972656 45.496094 125.367188 44.015625 125.859375 42.632812 C 127.242188 38.683594 130.109375 34.929688 133.761719 33.152344 C 138.601562 30.679688 144.824219 30.976562 149.371094 34.039062 C 149.371094 34.039062 149.46875 33.84375 149.566406 33.84375 C 149.960938 33.25 150.355469 32.753906 150.753906 32.261719 C 156.480469 25.445312 166.160156 21.496094 175.148438 21.988281 C 179.792969 22.1875 183.347656 26.039062 183.347656 30.679688 Z M 183.445312 30.382812 " fill-opacity="1" fill-rule="nonzero"/></g><g clip-path="url(#b48b63de60)"><path fill="#ffffff" d="M 191.84375 30.382812 L 191.84375 169.953125 C 197.175781 169.953125 204.683594 167.683594 208.734375 164.027344 C 208.929688 163.832031 209.226562 163.632812 209.425781 163.4375 C 210.117188 163.730469 210.90625 164.027344 211.695312 164.226562 C 218.710938 166.003906 227.796875 163.335938 233.425781 159.285156 C 239.550781 164.820312 251.007812 164.027344 256.738281 158.398438 C 257.234375 157.902344 257.628906 157.410156 258.023438 156.917969 C 258.023438 156.917969 258.121094 156.816406 258.21875 156.71875 C 258.515625 156.324219 264.640625 157.210938 265.53125 157.210938 C 268 157.210938 270.566406 156.71875 272.640625 155.335938 C 277.285156 152.273438 279.457031 145.65625 279.160156 140.222656 C 279.160156 139.925781 279.160156 139.628906 279.160156 139.335938 C 279.65625 139.136719 280.148438 139.039062 280.640625 138.839844 C 286.46875 136.570312 291.507812 131.925781 293.484375 126.097656 C 295.65625 119.679688 294.570312 112.367188 290.71875 106.9375 C 294.765625 101.40625 294.074219 91.625 291.707031 85.207031 C 289.53125 79.378906 284.691406 74.636719 278.863281 72.660156 C 278.171875 72.464844 277.582031 72.265625 276.890625 72.066406 C 276.890625 72.066406 276.890625 71.871094 276.890625 71.871094 C 277.582031 64.957031 274.714844 57.941406 269.679688 53.101562 C 264.839844 48.460938 258.023438 46.1875 251.40625 46.878906 C 251.007812 46.878906 250.714844 46.878906 250.316406 46.980469 C 250.316406 45.496094 249.921875 44.015625 249.429688 42.632812 C 248.046875 38.683594 245.183594 34.929688 241.527344 33.152344 C 236.6875 30.679688 230.464844 30.976562 225.921875 34.039062 C 225.921875 34.039062 225.820312 33.84375 225.722656 33.84375 C 225.328125 33.25 224.933594 32.753906 224.539062 32.261719 C 218.808594 25.445312 209.128906 21.496094 200.140625 21.988281 C 195.496094 22.1875 191.941406 26.039062 191.941406 30.679688 Z M 191.84375 30.382812 " fill-opacity="1" fill-rule="nonzero"/></g><path fill="#390303" d="M 136.726562 101.40625 C 134.847656 101.40625 133.269531 102.984375 133.269531 104.863281 C 133.269531 106.738281 134.257812 107.726562 135.738281 108.121094 L 135.738281 128.566406 L 125.960938 138.347656 L 125.960938 129.457031 C 127.34375 129.0625 128.429688 127.777344 128.429688 126.195312 C 128.429688 124.617188 126.847656 122.738281 124.972656 122.738281 C 123.09375 122.738281 121.515625 124.222656 121.515625 126.195312 C 121.515625 128.171875 122.601562 129.0625 123.984375 129.457031 L 123.984375 149.902344 L 117.167969 156.71875 C 117.5625 157.210938 117.957031 157.804688 118.453125 158.199219 L 125.960938 150.792969 L 125.960938 141.113281 L 137.714844 129.359375 L 137.714844 108.023438 C 139.097656 107.628906 140.183594 106.34375 140.183594 104.761719 C 140.183594 103.183594 138.601562 101.304688 136.726562 101.304688 Z M 124.972656 127.679688 C 124.179688 127.679688 123.488281 126.988281 123.488281 126.195312 C 123.488281 125.40625 124.179688 124.714844 124.972656 124.714844 C 125.761719 124.714844 126.453125 125.40625 126.453125 126.195312 C 126.453125 126.988281 125.761719 127.679688 124.972656 127.679688 Z M 136.726562 106.34375 C 135.9375 106.34375 135.246094 105.652344 135.246094 104.863281 C 135.246094 104.070312 135.9375 103.378906 136.726562 103.378906 C 137.515625 103.378906 138.207031 104.070312 138.207031 104.863281 C 138.207031 105.652344 137.515625 106.34375 136.726562 106.34375 Z M 151.34375 85.007812 C 150.257812 83.921875 148.578125 83.722656 147.296875 84.414062 L 132.773438 69.894531 L 132.773438 56.066406 L 139.097656 62.386719 C 138.40625 63.671875 138.601562 65.351562 139.6875 66.4375 C 140.777344 67.523438 141.269531 67.425781 142.160156 67.425781 C 143.046875 67.425781 143.9375 67.128906 144.628906 66.4375 C 146.011719 65.152344 146.011719 62.882812 144.628906 61.597656 C 143.542969 60.511719 141.863281 60.3125 140.578125 61.003906 L 126.058594 46.484375 L 126.058594 42.335938 C 125.566406 43.71875 125.269531 45.300781 125.167969 46.683594 C 124.773438 46.683594 124.476562 46.582031 124.082031 46.582031 L 124.082031 47.277344 L 130.898438 54.089844 L 130.898438 70.785156 L 146.011719 85.898438 C 145.320312 87.179688 145.515625 88.859375 146.605469 89.945312 C 147.296875 90.636719 148.183594 90.933594 149.074219 90.933594 C 149.960938 90.933594 150.851562 90.636719 151.542969 89.945312 C 152.828125 88.664062 152.828125 86.390625 151.542969 85.105469 Z M 140.972656 62.980469 C 141.566406 62.386719 142.457031 62.386719 143.046875 62.980469 C 143.640625 63.574219 143.640625 64.460938 143.046875 65.054688 C 142.457031 65.648438 141.566406 65.648438 140.972656 65.054688 C 140.378906 64.460938 140.378906 63.574219 140.972656 62.980469 Z M 149.863281 88.464844 C 149.269531 89.058594 148.382812 89.058594 147.789062 88.464844 C 147.195312 87.871094 147.195312 86.984375 147.789062 86.390625 C 148.382812 85.796875 149.269531 85.796875 149.863281 86.390625 C 150.457031 86.984375 150.457031 87.871094 149.863281 88.464844 Z M 107.785156 77.402344 C 106.699219 76.316406 105.019531 76.117188 103.734375 76.808594 L 98.5 71.574219 C 98.5 71.574219 98.5 71.773438 98.5 71.773438 C 97.808594 71.96875 97.214844 72.167969 96.523438 72.363281 L 102.253906 78.09375 C 101.5625 79.378906 101.757812 81.058594 102.847656 82.144531 C 103.539062 82.835938 104.425781 83.132812 105.316406 83.132812 C 106.203125 83.132812 107.09375 82.835938 107.785156 82.144531 C 109.070312 80.859375 109.070312 78.585938 107.785156 77.304688 Z M 106.304688 80.859375 C 105.710938 81.453125 104.820312 81.453125 104.230469 80.859375 C 103.636719 80.265625 103.636719 79.378906 104.230469 78.785156 C 104.820312 78.191406 105.710938 78.191406 106.304688 78.785156 C 106.894531 79.378906 106.894531 80.265625 106.304688 80.859375 Z M 172.777344 67.03125 C 171.691406 65.945312 170.011719 65.746094 168.730469 66.4375 L 154.210938 51.917969 L 154.210938 38.089844 L 160.433594 44.410156 C 159.742188 45.695312 159.9375 47.375 161.023438 48.460938 C 161.714844 49.152344 162.605469 49.449219 163.496094 49.449219 C 164.382812 49.449219 165.273438 49.152344 165.964844 48.460938 C 167.246094 47.078125 167.246094 44.90625 165.964844 43.621094 C 164.878906 42.535156 163.199219 42.335938 161.914062 43.027344 L 150.851562 31.964844 C 150.457031 32.460938 149.960938 32.953125 149.664062 33.546875 L 152.332031 36.210938 L 152.332031 52.90625 L 167.445312 68.019531 C 167.148438 68.511719 167.050781 69.007812 167.050781 69.597656 C 167.050781 70.488281 167.445312 71.375 168.039062 72.066406 C 168.730469 72.757812 169.617188 73.054688 170.507812 73.054688 C 171.394531 73.054688 172.285156 72.757812 172.976562 72.066406 C 173.667969 71.375 173.964844 70.585938 173.964844 69.597656 C 173.964844 68.609375 173.570312 67.820312 172.976562 67.128906 Z M 162.507812 45.003906 C 163.097656 44.410156 163.988281 44.410156 164.582031 45.003906 C 165.171875 45.597656 165.171875 46.484375 164.582031 47.078125 C 163.988281 47.671875 163.097656 47.671875 162.507812 47.078125 C 161.914062 46.484375 161.914062 45.597656 162.507812 45.003906 Z M 171.394531 70.488281 C 170.804688 71.082031 169.914062 71.082031 169.320312 70.488281 C 169.027344 70.191406 168.925781 69.894531 168.925781 69.5 C 168.925781 69.105469 169.125 68.710938 169.320312 68.511719 C 169.617188 68.214844 170.011719 68.117188 170.308594 68.117188 C 170.605469 68.117188 171 68.214844 171.296875 68.511719 C 171.59375 68.808594 171.691406 69.105469 171.691406 69.5 C 171.691406 69.894531 171.496094 70.289062 171.296875 70.488281 Z M 104.03125 103.183594 C 102.15625 103.183594 100.574219 104.761719 100.574219 106.640625 C 100.574219 108.515625 101.5625 109.503906 103.042969 109.898438 L 103.042969 130.445312 L 94.746094 138.742188 C 95.242188 138.9375 95.734375 139.136719 96.226562 139.234375 C 96.226562 139.53125 96.226562 139.828125 96.226562 140.125 L 105.117188 131.234375 L 105.117188 109.898438 C 106.5 109.503906 107.585938 108.21875 107.585938 106.640625 C 107.585938 105.058594 106.007812 103.183594 104.128906 103.183594 Z M 104.03125 108.023438 C 103.242188 108.023438 102.550781 107.332031 102.550781 106.539062 C 102.550781 105.75 103.242188 105.058594 104.03125 105.058594 C 104.820312 105.058594 105.511719 105.75 105.511719 106.539062 C 105.511719 107.332031 104.820312 108.023438 104.03125 108.023438 Z M 120.03125 99.132812 L 120.03125 79.082031 C 121.414062 78.6875 122.503906 77.402344 122.503906 75.820312 C 122.503906 74.242188 120.921875 72.363281 119.046875 72.363281 C 117.167969 72.363281 115.589844 73.945312 115.589844 75.820312 C 115.589844 77.699219 116.574219 78.6875 118.058594 79.082031 L 118.058594 99.132812 C 116.675781 99.527344 115.589844 100.8125 115.589844 102.390625 C 115.589844 103.972656 117.070312 105.847656 119.046875 105.847656 C 121.019531 105.847656 122.503906 104.269531 122.503906 102.390625 C 122.503906 100.515625 121.515625 99.527344 120.03125 99.132812 Z M 117.5625 75.722656 C 117.5625 74.933594 118.15625 74.242188 119.046875 74.242188 C 119.933594 74.242188 120.527344 74.933594 120.527344 75.722656 C 120.527344 76.511719 119.835938 77.203125 119.046875 77.203125 C 118.253906 77.203125 117.5625 76.613281 117.5625 75.722656 Z M 119.046875 103.875 C 118.253906 103.875 117.5625 103.183594 117.5625 102.390625 C 117.5625 101.601562 118.15625 100.910156 119.046875 100.910156 C 119.933594 100.910156 120.527344 101.601562 120.527344 102.390625 C 120.527344 103.183594 119.835938 103.875 119.046875 103.875 Z M 174.457031 105.847656 L 174.457031 85.796875 C 175.839844 85.402344 176.929688 84.117188 176.929688 82.539062 C 176.929688 80.957031 175.445312 79.082031 173.46875 79.082031 C 171.496094 79.082031 170.011719 80.660156 170.011719 82.539062 C 170.011719 84.414062 171 85.402344 172.484375 85.796875 L 172.484375 105.847656 C 171.101562 106.246094 170.011719 107.527344 170.011719 109.109375 C 170.011719 110.6875 171.59375 112.566406 173.46875 112.566406 C 175.347656 112.566406 176.929688 110.984375 176.929688 109.109375 C 176.929688 107.230469 175.941406 106.246094 174.457031 105.847656 Z M 172.085938 82.441406 C 172.085938 81.648438 172.777344 80.957031 173.570312 80.957031 C 174.359375 80.957031 175.050781 81.648438 175.050781 82.441406 C 175.050781 83.230469 174.359375 83.921875 173.570312 83.921875 C 172.777344 83.921875 172.085938 83.230469 172.085938 82.441406 Z M 173.46875 110.589844 C 172.679688 110.589844 171.988281 109.898438 171.988281 109.109375 C 171.988281 108.320312 172.679688 107.628906 173.46875 107.628906 C 174.261719 107.628906 174.953125 108.320312 174.953125 109.109375 C 174.953125 109.898438 174.261719 110.589844 173.46875 110.589844 Z M 173.46875 127.976562 C 171.59375 127.976562 170.011719 129.554688 170.011719 131.433594 C 170.011719 133.308594 171 134.296875 172.484375 134.691406 L 172.484375 155.136719 L 169.816406 157.804688 L 158.851562 146.839844 L 158.851562 126.296875 C 160.234375 125.902344 161.320312 124.617188 161.320312 123.035156 C 161.320312 121.457031 159.742188 119.578125 157.863281 119.578125 C 155.988281 119.578125 154.40625 121.160156 154.40625 123.035156 C 154.40625 124.914062 155.492188 125.902344 156.875 126.296875 L 156.875 147.632812 L 168.433594 159.1875 L 163.496094 164.128906 C 164.285156 163.929688 165.074219 163.632812 165.765625 163.335938 C 165.964844 163.535156 166.160156 163.730469 166.457031 163.929688 L 174.457031 155.929688 L 174.457031 134.59375 C 175.839844 134.199219 176.929688 132.914062 176.929688 131.332031 C 176.929688 129.753906 175.445312 127.875 173.46875 127.875 Z M 156.382812 123.035156 C 156.382812 122.246094 157.074219 121.554688 157.863281 121.554688 C 158.65625 121.554688 159.347656 122.246094 159.347656 123.035156 C 159.347656 123.828125 158.65625 124.519531 157.863281 124.519531 C 157.074219 124.519531 156.382812 123.828125 156.382812 123.035156 Z M 173.46875 132.914062 C 172.679688 132.914062 171.988281 132.222656 171.988281 131.433594 C 171.988281 130.640625 172.679688 129.949219 173.46875 129.949219 C 174.261719 129.949219 174.953125 130.640625 174.953125 131.433594 C 174.953125 132.222656 174.261719 132.914062 173.46875 132.914062 Z M 235.105469 104.863281 C 235.105469 106.441406 236.191406 107.726562 237.574219 108.121094 L 237.574219 129.457031 L 249.332031 141.210938 L 249.332031 150.890625 L 256.835938 158.300781 C 257.332031 157.804688 257.726562 157.3125 258.121094 156.816406 L 251.304688 150.003906 L 251.304688 129.554688 C 252.6875 129.160156 253.773438 127.875 253.773438 126.296875 C 253.773438 124.714844 252.195312 122.839844 250.316406 122.839844 C 248.441406 122.839844 246.859375 124.320312 246.859375 126.296875 C 246.859375 128.273438 247.847656 129.160156 249.332031 129.554688 L 249.332031 138.445312 L 239.550781 128.667969 L 239.550781 108.21875 C 240.933594 107.824219 242.019531 106.539062 242.019531 104.960938 C 242.019531 103.378906 240.441406 101.503906 238.5625 101.503906 C 236.6875 101.503906 235.105469 103.082031 235.105469 104.960938 Z M 248.835938 126.296875 C 248.835938 125.503906 249.527344 124.8125 250.316406 124.8125 C 251.109375 124.8125 251.800781 125.503906 251.800781 126.296875 C 251.800781 127.085938 251.109375 127.777344 250.316406 127.777344 C 249.527344 127.777344 248.835938 127.085938 248.835938 126.296875 Z M 237.082031 104.863281 C 237.082031 104.070312 237.773438 103.378906 238.5625 103.378906 C 239.355469 103.378906 240.046875 104.070312 240.046875 104.863281 C 240.046875 105.652344 239.355469 106.34375 238.5625 106.34375 C 237.773438 106.34375 237.082031 105.652344 237.082031 104.863281 Z M 223.945312 89.945312 C 224.636719 90.636719 225.527344 90.933594 226.414062 90.933594 C 227.304688 90.933594 228.191406 90.636719 228.882812 89.945312 C 229.96875 88.859375 230.167969 87.179688 229.476562 85.898438 L 244.589844 70.785156 L 244.589844 54.089844 L 251.40625 47.277344 L 251.40625 46.582031 C 251.007812 46.582031 250.714844 46.582031 250.316406 46.683594 C 250.316406 45.199219 249.921875 43.71875 249.429688 42.335938 L 249.429688 46.484375 L 234.910156 61.003906 C 233.625 60.3125 231.945312 60.511719 230.859375 61.597656 C 229.476562 62.980469 229.476562 65.152344 230.859375 66.4375 C 231.550781 67.128906 232.441406 67.425781 233.328125 67.425781 C 234.21875 67.425781 235.105469 67.128906 235.796875 66.4375 C 236.882812 65.351562 237.082031 63.671875 236.390625 62.386719 L 242.710938 56.066406 L 242.710938 69.894531 L 228.191406 84.414062 C 226.910156 83.722656 225.230469 83.921875 224.140625 85.007812 C 222.859375 86.390625 222.859375 88.5625 224.140625 89.847656 Z M 234.21875 65.054688 C 233.625 65.648438 232.734375 65.648438 232.144531 65.054688 C 231.550781 64.460938 231.550781 63.574219 232.144531 62.980469 C 232.734375 62.386719 233.625 62.386719 234.21875 62.980469 C 234.808594 63.574219 234.808594 64.460938 234.21875 65.054688 Z M 225.425781 86.488281 C 226.019531 85.898438 226.910156 85.898438 227.5 86.488281 C 228.09375 87.082031 228.09375 87.972656 227.5 88.5625 C 226.910156 89.15625 226.019531 89.15625 225.425781 88.5625 C 224.835938 87.972656 224.835938 87.082031 225.425781 86.488281 Z M 267.503906 82.242188 C 268.195312 82.933594 269.085938 83.230469 269.972656 83.230469 C 270.863281 83.230469 271.753906 82.933594 272.445312 82.242188 C 273.53125 81.15625 273.726562 79.476562 273.035156 78.191406 L 278.765625 72.464844 C 278.074219 72.265625 277.480469 72.066406 276.789062 71.871094 C 276.789062 71.871094 276.789062 71.671875 276.789062 71.671875 L 271.554688 76.90625 C 270.269531 76.214844 268.589844 76.414062 267.503906 77.5 C 266.222656 78.882812 266.222656 81.058594 267.503906 82.339844 Z M 268.886719 78.785156 C 269.480469 78.191406 270.371094 78.191406 270.960938 78.785156 C 271.554688 79.378906 271.554688 80.265625 270.960938 80.859375 C 270.371094 81.453125 269.480469 81.453125 268.886719 80.859375 C 268.296875 80.265625 268.296875 79.378906 268.886719 78.785156 Z M 201.523438 69.5 C 201.523438 70.390625 201.917969 71.277344 202.511719 71.96875 C 203.101562 72.660156 204.089844 72.957031 204.980469 72.957031 C 205.867188 72.957031 206.757812 72.660156 207.449219 71.96875 C 208.140625 71.277344 208.4375 70.488281 208.4375 69.5 C 208.4375 68.511719 208.238281 68.414062 208.042969 67.917969 L 223.15625 52.808594 L 223.15625 36.113281 L 225.820312 33.445312 C 225.425781 32.855469 225.03125 32.359375 224.636719 31.867188 L 213.574219 42.929688 C 212.289062 42.238281 210.609375 42.433594 209.523438 43.523438 C 208.238281 44.804688 208.238281 47.078125 209.523438 48.363281 C 210.214844 49.054688 211.105469 49.351562 211.992188 49.351562 C 212.882812 49.351562 213.769531 49.054688 214.460938 48.363281 C 215.550781 47.277344 215.746094 45.597656 215.054688 44.3125 L 221.277344 37.992188 L 221.277344 51.820312 L 206.757812 66.339844 C 205.472656 65.648438 203.792969 65.84375 202.707031 66.933594 C 202.015625 67.625 201.71875 68.414062 201.71875 69.402344 Z M 212.785156 47.078125 C 212.191406 47.671875 211.300781 47.671875 210.710938 47.078125 C 210.117188 46.484375 210.117188 45.597656 210.710938 45.003906 C 211.300781 44.410156 212.191406 44.410156 212.785156 45.003906 C 213.375 45.597656 213.375 46.484375 212.785156 47.078125 Z M 203.5 69.5 C 203.5 69.105469 203.695312 68.710938 203.894531 68.511719 C 204.191406 68.214844 204.585938 68.117188 204.882812 68.117188 C 205.175781 68.117188 205.671875 68.214844 205.867188 68.511719 C 206.164062 68.808594 206.265625 69.105469 206.265625 69.5 C 206.265625 69.894531 206.066406 70.289062 205.867188 70.488281 C 205.277344 71.082031 204.386719 71.082031 203.792969 70.488281 C 203.5 70.191406 203.398438 69.894531 203.398438 69.5 Z M 267.800781 106.539062 C 267.800781 108.121094 268.789062 109.40625 270.269531 109.800781 L 270.269531 131.136719 L 279.160156 140.027344 C 279.160156 139.730469 279.160156 139.433594 279.160156 139.136719 C 279.65625 138.9375 280.148438 138.839844 280.640625 138.644531 L 272.34375 130.347656 L 272.34375 109.800781 C 273.726562 109.40625 274.816406 108.121094 274.816406 106.539062 C 274.816406 104.960938 273.234375 103.082031 271.355469 103.082031 C 269.480469 103.082031 267.898438 104.664062 267.898438 106.539062 Z M 269.777344 106.539062 C 269.777344 105.75 270.46875 105.058594 271.257812 105.058594 C 272.046875 105.058594 272.742188 105.75 272.742188 106.539062 C 272.742188 107.332031 272.046875 108.023438 271.257812 108.023438 C 270.46875 108.023438 269.777344 107.332031 269.777344 106.539062 Z M 252.789062 102.390625 C 252.789062 104.269531 254.367188 105.847656 256.246094 105.847656 C 258.121094 105.847656 259.703125 104.269531 259.703125 102.390625 C 259.703125 100.515625 258.714844 99.527344 257.234375 99.132812 L 257.234375 79.082031 C 258.617188 78.6875 259.703125 77.402344 259.703125 75.820312 C 259.703125 74.242188 258.21875 72.363281 256.246094 72.363281 C 254.269531 72.363281 252.789062 73.945312 252.789062 75.820312 C 252.789062 77.699219 253.773438 78.6875 255.257812 79.082031 L 255.257812 99.132812 C 253.875 99.527344 252.789062 100.8125 252.789062 102.390625 Z M 256.246094 77.203125 C 255.453125 77.203125 254.761719 76.613281 254.761719 75.722656 C 254.761719 74.832031 255.453125 74.242188 256.246094 74.242188 C 257.035156 74.242188 257.726562 74.933594 257.726562 75.722656 C 257.726562 76.511719 257.132812 77.203125 256.246094 77.203125 Z M 254.761719 102.390625 C 254.761719 101.601562 255.453125 100.910156 256.246094 100.910156 C 257.035156 100.910156 257.726562 101.601562 257.726562 102.390625 C 257.726562 103.183594 257.132812 103.875 256.246094 103.875 C 255.355469 103.875 254.761719 103.183594 254.761719 102.390625 Z M 198.363281 109.109375 C 198.363281 110.984375 199.84375 112.566406 201.820312 112.566406 C 203.792969 112.566406 205.277344 110.984375 205.277344 109.109375 C 205.277344 107.230469 204.289062 106.246094 202.808594 105.847656 L 202.808594 85.796875 C 204.191406 85.402344 205.277344 84.117188 205.277344 82.539062 C 205.277344 80.957031 203.695312 79.082031 201.820312 79.082031 C 199.941406 79.082031 198.363281 80.660156 198.363281 82.539062 C 198.363281 84.414062 199.351562 85.402344 200.832031 85.796875 L 200.832031 105.847656 C 199.449219 106.246094 198.363281 107.527344 198.363281 109.109375 Z M 201.820312 83.921875 C 201.027344 83.921875 200.335938 83.230469 200.335938 82.441406 C 200.335938 81.648438 201.027344 80.957031 201.820312 80.957031 C 202.609375 80.957031 203.300781 81.648438 203.300781 82.441406 C 203.300781 83.230469 202.609375 83.921875 201.820312 83.921875 Z M 200.335938 109.109375 C 200.335938 108.320312 201.027344 107.628906 201.820312 107.628906 C 202.609375 107.628906 203.300781 108.320312 203.300781 109.109375 C 203.300781 109.898438 202.609375 110.589844 201.820312 110.589844 C 201.027344 110.589844 200.335938 109.898438 200.335938 109.109375 Z M 198.363281 131.433594 C 198.363281 133.011719 199.351562 134.296875 200.832031 134.691406 L 200.832031 156.027344 L 208.832031 164.027344 C 209.03125 163.832031 209.328125 163.632812 209.523438 163.4375 C 210.214844 163.730469 211.003906 164.027344 211.796875 164.226562 L 206.855469 159.285156 L 218.414062 147.730469 L 218.414062 126.394531 C 219.796875 126 220.882812 124.714844 220.882812 123.136719 C 220.882812 121.554688 219.300781 119.679688 217.425781 119.679688 C 215.550781 119.679688 213.96875 121.257812 213.96875 123.136719 C 213.96875 125.011719 214.957031 126 216.4375 126.394531 L 216.4375 146.941406 L 205.472656 157.902344 L 202.808594 155.238281 L 202.808594 134.789062 C 204.191406 134.394531 205.277344 133.113281 205.277344 131.53125 C 205.277344 129.949219 203.695312 128.074219 201.820312 128.074219 C 199.941406 128.074219 198.363281 129.652344 198.363281 131.53125 Z M 217.425781 124.519531 C 216.636719 124.519531 215.945312 123.828125 215.945312 123.035156 C 215.945312 122.246094 216.636719 121.554688 217.425781 121.554688 C 218.214844 121.554688 218.90625 122.246094 218.90625 123.035156 C 218.90625 123.828125 218.214844 124.519531 217.425781 124.519531 Z M 200.335938 131.433594 C 200.335938 130.640625 201.027344 129.949219 201.820312 129.949219 C 202.609375 129.949219 203.300781 130.640625 203.300781 131.433594 C 203.300781 132.222656 202.609375 132.914062 201.820312 132.914062 C 201.027344 132.914062 200.335938 132.222656 200.335938 131.433594 Z M 200.335938 131.433594 " fill-opacity="1" fill-rule="nonzero"/><g fill="#ffffff" fill-opacity="1"><g transform="translate(74.645886, 273.622931)"><g/></g></g><g fill="#ffffff" fill-opacity="1"><g transform="translate(81.876748, 285.213189)"><g><path d="M 6.234375 -2.46875 L 8.171875 -0.203125 L 21.171875 -11.296875 L 19.234375 -13.5625 L 24.03125 -17.671875 L 34.34375 -5.609375 L 29.546875 -1.5 L 27.609375 -3.765625 L 14.609375 7.328125 L 16.546875 9.59375 L 11.71875 13.71875 L 1.40625 1.65625 Z M 6.234375 -2.46875 "/></g></g></g><g fill="#ffffff" fill-opacity="1"><g transform="translate(96.697857, 302.962438)"><g><path d="M 15.828125 11.9375 L 8.125 6.140625 L 17.453125 -24.09375 L 25.53125 -18.015625 Z M 34.984375 -10.875 L 42.9375 -4.890625 L 17.328125 11.953125 L 21.65625 -1.171875 Z M 34.984375 -10.875 "/></g></g></g><g fill="#ffffff" fill-opacity="1"><g transform="translate(124.350267, 323.441702)"><g><path d="M 21.828125 5.015625 L 12.765625 1.484375 L 16.828125 -3.265625 L 21.828125 -1.328125 L 21.890625 -23.390625 L 30.90625 -19.890625 L 31.15625 12.140625 L 21.8125 8.5 Z M 9.109375 3.546875 L 0.1875 0.078125 L 20.40625 -22.53125 L 20.21875 -9.9375 Z M 9.109375 3.546875 "/></g></g></g><g fill="#ffffff" fill-opacity="1"><g transform="translate(159.456236, 336.539299)"><g><path d="M 31.078125 2.609375 L 20.578125 1.71875 L 5.09375 -29.421875 L 15.53125 -28.546875 Z M 2.609375 0.21875 L 4.859375 -26.625 L 12.265625 -11.796875 L 11.203125 0.9375 Z M 33.5625 -27.03125 L 31.3125 -0.203125 L 23.90625 -15.09375 L 24.96875 -27.75 Z M 33.5625 -27.03125 "/></g></g></g><g fill="#ffffff" fill-opacity="1"><g transform="translate(196.957716, 339.068752)"><g><path d="M 10.421875 -8.28125 L 14.0625 -9.03125 L 15.265625 -3.109375 L 7.796875 -1.59375 L 0.703125 -6.203125 L -2.859375 -23.71875 L 1.859375 -30.75 L 9.328125 -32.265625 L 10.53125 -26.34375 L 6.890625 -25.59375 Z M 15.78125 -27.40625 L 12.078125 -26.65625 L 10.875 -32.578125 L 18.40625 -34.109375 L 25.484375 -29.484375 L 29.046875 -11.96875 L 24.34375 -4.953125 L 16.8125 -3.421875 L 15.609375 -9.34375 L 19.3125 -10.09375 Z M 15.78125 -27.40625 "/></g></g></g><g fill="#ffffff" fill-opacity="1"><g transform="translate(232.477061, 331.199943)"><g><path d="M 17.65625 -9.015625 L 9.078125 -4.625 L -14.046875 -26.234375 L -5.046875 -30.828125 Z M 5.5 -36.21875 L 14.375 -40.75 L 18.328125 -10.359375 L 8.40625 -19.984375 Z M 5.5 -36.21875 "/></g></g></g><g fill="#ffffff" fill-opacity="1"><g transform="translate(261.928671, 315.177385)"><g><path d="M -2.359375 -6.265625 L -0.046875 -8.171875 L -10.921875 -21.359375 L -13.234375 -19.453125 L -17.25 -24.328125 L -5 -34.4375 L -0.984375 -29.5625 L -3.28125 -27.65625 L 7.59375 -14.46875 L 9.890625 -16.375 L 13.921875 -11.484375 L 1.671875 -1.375 Z M -2.359375 -6.265625 "/></g></g></g><g fill="#ffffff" fill-opacity="1"><g transform="translate(280.063478, 300.658846)"><g><path d="M 7.375 -9.5625 L 4.96875 -6.453125 L -3.375 -5.34375 L -17.53125 -16.265625 L -18.59375 -24.625 L -16.1875 -27.734375 Z M -10.515625 -25.359375 L -15.21875 -28.984375 L -8.765625 -37.34375 L -0.4375 -38.421875 L 4.296875 -34.765625 L -1.765625 -26.921875 L -6.5 -30.578125 Z M 8.34375 -10.8125 L 3.640625 -14.4375 L 7.65625 -19.65625 L 4.203125 -22.3125 L 10.265625 -30.15625 L 13.71875 -27.5 L 14.796875 -19.171875 Z M 8.34375 -10.8125 "/></g></g></g></svg>